<svg width="485" height="484" viewBox="0 0 485 484" fill="none" xmlns="http://www.w3.org/2000/svg">
<path fill-rule="evenodd" clip-rule="evenodd" d="M1.25147 0H483.749C484.08 0 484.399 0.131851 484.633 0.366547C484.868 0.601243 485 0.91956 485 1.25147V482.462C485 482.627 484.968 482.789 484.905 482.941C484.842 483.093 484.75 483.231 484.633 483.347C484.517 483.463 484.379 483.555 484.227 483.618C484.076 483.681 483.913 483.713 483.749 483.713H1.25147C1.08717 483.713 0.924462 483.681 0.772633 483.618C0.620804 483.555 0.482834 483.463 0.366611 483.347C0.250387 483.231 0.158188 483.093 0.095283 482.941C0.0323778 482.789 -5.80099e-08 482.627 0 482.462L0 1.25147C0 0.91956 0.131851 0.601243 0.366547 0.366547C0.601244 0.131851 0.91956 0 1.25147 0V0Z" fill="#E1F6FB"/>
<path fill-rule="evenodd" clip-rule="evenodd" d="M74.877 81.0146H353.28C353.612 81.0146 353.93 81.1463 354.165 81.3808C354.399 81.6153 354.531 81.9334 354.531 82.265V111.056C354.531 111.388 354.399 111.706 354.165 111.94C353.93 112.175 353.612 112.307 353.28 112.307H74.877C74.7127 112.307 74.55 112.275 74.3981 112.212C74.2463 112.149 74.1083 112.057 73.9921 111.941C73.8759 111.825 73.7837 111.687 73.7208 111.535C73.6579 111.383 73.6255 111.22 73.6255 111.056V82.265C73.6255 82.1007 73.6579 81.938 73.7208 81.7862C73.7837 81.6345 73.8759 81.4966 73.9921 81.3805C74.1083 81.2643 74.2463 81.1722 74.3981 81.1095C74.55 81.0467 74.7127 81.0144 74.877 81.0146Z" fill="white"/>
<path fill-rule="evenodd" clip-rule="evenodd" d="M141.795 121.475H203.922C204.254 121.475 204.572 121.606 204.807 121.841C205.041 122.075 205.173 122.393 205.173 122.725V143.378C205.173 143.71 205.041 144.027 204.806 144.262C204.572 144.496 204.254 144.628 203.922 144.628H141.795C141.464 144.628 141.146 144.497 140.911 144.262C140.676 144.028 140.544 143.71 140.544 143.378V122.73C140.543 122.566 140.575 122.402 140.638 122.25C140.7 122.098 140.792 121.959 140.909 121.842C141.025 121.726 141.163 121.633 141.315 121.57C141.468 121.507 141.631 121.474 141.795 121.475V121.475Z" fill="#5AA5B9" fill-opacity="0.5"/>
<path fill-rule="evenodd" clip-rule="evenodd" d="M361.878 167.932C361.84 164.563 357.541 157.166 355.993 157.436C354.446 157.706 344.453 162.976 341.277 164.64C338.102 166.305 301.355 165.12 296.83 164.988C292.304 164.857 290.489 161.379 285.012 158.591C279.534 155.803 277.436 169.808 277.341 172.279C277.185 176.131 284.732 171.994 287.165 172.662C289.597 173.33 336.802 184.201 339.715 184.298C342.628 184.396 356.311 177.765 357.502 175.81C358.694 173.856 361.917 171.302 361.878 167.932Z" fill="white"/>
<path fill-rule="evenodd" clip-rule="evenodd" d="M297.596 269.258H428.152C429.604 269.258 430.779 270.906 430.779 272.936V333.692C430.779 335.723 429.602 337.37 428.152 337.37H297.596C296.145 337.37 294.969 335.721 294.969 333.692V272.936C294.967 270.906 296.145 269.258 297.596 269.258Z" fill="#5AA5B9" fill-opacity="0.5"/>
<path fill-rule="evenodd" clip-rule="evenodd" d="M297.596 344.501H428.152C429.604 344.501 430.779 346.15 430.779 348.179V408.936C430.779 410.967 429.602 412.613 428.152 412.613H297.596C296.145 412.613 294.969 410.965 294.969 408.936V348.182C294.967 346.15 296.145 344.501 297.596 344.501Z" fill="#5AA5B9" fill-opacity="0.5"/>
<path d="M301.309 208.712L317.806 235.333" stroke="#3F4156" stroke-width="1.88088" stroke-linecap="round" stroke-linejoin="round"/>
<path d="M269.929 277.577L285.131 303.015" stroke="#3F4156" stroke-width="1.88088" stroke-linecap="round" stroke-linejoin="round"/>
<path d="M320.236 340.053L349.769 337.606" stroke="#3F4156" stroke-width="1.88088" stroke-linecap="round" stroke-linejoin="round"/>
<path d="M321.085 345.607L350.618 343.158" stroke="#3F4156" stroke-width="1.88088" stroke-linecap="round" stroke-linejoin="round"/>
<path fill-rule="evenodd" clip-rule="evenodd" d="M385.239 228.559C382.619 228.775 334.536 240.901 328.302 242.966C322.069 245.031 278.167 281.885 276.108 283.964C277.447 286.306 285.548 299.654 285.548 299.654L320.214 282.905C320.214 282.905 387.857 228.341 385.239 228.559Z" fill="#3F4156"/>
<path d="M295.83 263.014C284.377 272.327 273.78 281.31 272.793 282.306C274.132 284.654 282.238 297.999 282.238 297.999L316.904 281.25C316.904 281.25 384.547 226.686 381.929 226.904C379.31 227.121 331.227 239.245 324.993 241.311C323.018 241.965 317.263 246.11 310.255 251.534" stroke="#3F4156" stroke-width="1.88088" stroke-linecap="round" stroke-linejoin="round"/>
<path fill-rule="evenodd" clip-rule="evenodd" d="M420.104 217.045C439.798 265.783 404.028 280.038 353.793 281.843C353 287.937 348.572 340.064 348.572 340.064L327.086 341.826C327.086 341.826 312.628 270.912 315.904 266.035C319.181 261.157 374.629 230.255 379.531 228.124C384.433 225.993 419.259 214.939 420.104 217.045Z" fill="#3F4156"/>
<path d="M389.391 274.588C378.358 277.645 365.199 279.175 350.858 279.691C350.065 285.785 345.637 337.912 345.637 337.912L324.151 339.674C324.151 339.674 321.779 328.042 319.175 313.874" stroke="#3F4156" stroke-width="1.88088" stroke-linecap="round" stroke-linejoin="round"/>
<path d="M347.262 242.12C361.085 234.188 374.315 226.964 376.596 225.971C381.499 223.839 416.315 212.787 417.17 214.892C428.852 243.803 421.016 260.58 402.224 269.822" stroke="#3F4156" stroke-width="1.88088" stroke-linecap="round" stroke-linejoin="round"/>
<path d="M316.703 299.958C313.778 282.83 311.442 266.161 312.972 263.883C314.338 261.85 324.774 255.291 336.835 248.181" stroke="#3F4156" stroke-width="1.88088" stroke-linecap="round" stroke-linejoin="round"/>
<path d="M358.075 146.249C360.282 144.664 362.554 143.365 364.181 143.166" stroke="#3F4156" stroke-width="1.88088" stroke-linecap="round" stroke-linejoin="round"/>
<path d="M355.036 164.446C352.967 160.808 350.047 154.098 351.103 152.503C351.363 152.111 352.007 151.41 352.889 150.558" stroke="#3F4156" stroke-width="1.88088" stroke-linecap="round" stroke-linejoin="round"/>
<path fill-rule="evenodd" clip-rule="evenodd" d="M359.033 169.472C357.65 167.916 351.922 155.707 353.164 153.833C354.406 151.96 365.331 142.858 371.868 143.922C370.113 149.15 360.415 171.028 359.033 169.472Z" fill="#5AA5B9"/>
<path fill-rule="evenodd" clip-rule="evenodd" d="M378.131 137.622C411.494 125.472 423.273 209.673 421.281 218.006C412.748 226.517 379.016 232.423 374.814 229.836C357.793 211.39 344.426 149.895 378.131 137.622Z" fill="#5AA5B9"/>
<path d="M354.974 182.969C353.411 167.515 355.732 152.141 364.746 142.803" stroke="#3F4156" stroke-width="1.88088" stroke-linecap="round" stroke-linejoin="round"/>
<path d="M414.262 182.775C418.027 198.653 419.306 213.119 418.536 216.328C410.002 224.839 376.27 230.744 372.068 228.157C365.569 221.117 359.603 207.794 356.586 193.335" stroke="#3F4156" stroke-width="1.88088" stroke-linecap="round" stroke-linejoin="round"/>
<path d="M364.741 142.8C367.59 139.847 371.109 137.497 375.385 135.941C392.855 129.579 404.407 149.633 411.162 171.381" stroke="#3F4156" stroke-width="1.88088" stroke-linecap="round" stroke-linejoin="round"/>
<path d="M307.659 163.185C301.101 163.204 295.965 163.164 295.23 163.036C293.145 162.674 284.126 155.836 281.684 155.801" stroke="#3F4156" stroke-width="1.88088" stroke-linecap="round" stroke-linejoin="round"/>
<path d="M351.506 156.625C347.888 158.384 342.219 161.169 339.75 162.675C337.793 162.826 330.509 162.974 322.377 163.073" stroke="#3F4156" stroke-width="1.88088" stroke-linecap="round" stroke-linejoin="round"/>
<path d="M276.08 170.308C279.18 172.598 283.471 170.022 285.904 170.691C288.336 171.359 335.548 182.231 338.457 182.327C341.367 182.423 353.378 176.624 354.567 174.668" stroke="#3F4156" stroke-width="1.88088" stroke-linecap="round" stroke-linejoin="round"/>
<path fill-rule="evenodd" clip-rule="evenodd" d="M371.72 177.022C369.934 180.73 365.988 190.997 364.845 194.724C361.502 196.628 330.543 211.565 321.693 217.582C319.391 217.833 312.196 215.246 310.406 215.417C308.615 215.588 308.249 216.755 308.249 216.755C304.195 216.974 302.615 225.298 307.769 226.947C312.923 228.596 316.281 230.056 319.895 227.98C323.51 225.904 375.912 212.778 379.816 210.117C385.082 206.531 388.078 198.768 391.12 192.366C394.309 185.654 392.851 189.196 392.851 186.699C392.851 184.203 373.509 173.314 371.72 177.022Z" fill="white"/>
<path d="M301.022 216.152C302.575 217.512 306.459 218.894 309.008 219.305" stroke="#3F4156" stroke-width="1.88088" stroke-linecap="round" stroke-linejoin="round"/>
<path d="M302.991 220.513C304.765 222.077 310.019 223.757 312.148 223.33" stroke="#3F4156" stroke-width="1.88088" stroke-linecap="round" stroke-linejoin="round"/>
<path d="M371.422 210.365C374.593 209.342 376.839 208.531 377.612 208.07C381.798 205.566 390.037 189.195 390.284 185.25" stroke="#3F4156" stroke-width="1.88088" stroke-linecap="round" stroke-linejoin="round"/>
<path d="M304.813 224.796C307.037 226.122 312.716 227.633 314.941 227.234C317.165 226.835 319.236 224.87 322.611 224.099C324.535 223.659 340.77 219.327 355.154 215.22" stroke="#3F4156" stroke-width="1.88088" stroke-linecap="round" stroke-linejoin="round"/>
<path d="M369.499 175.428C367.713 179.135 363.768 189.403 362.625 193.13C359.281 195.033 328.321 209.971 319.473 215.987C317.171 216.24 309.976 213.651 308.185 213.824C306.395 213.997 306.027 215.162 306.027 215.162" stroke="#3F4156" stroke-width="1.88088" stroke-linecap="round" stroke-linejoin="round"/>
<path fill-rule="evenodd" clip-rule="evenodd" d="M399.241 143.431C414.008 149.817 401.868 186.536 396.965 189.938C390.707 191.261 369.557 179.915 366.271 176.266C365.589 173.015 381.167 135.617 399.241 143.431Z" fill="#5AA5B9"/>
<path d="M378.526 182.557C372.222 179.477 366.37 175.867 364.761 174.086" stroke="#3F4156" stroke-width="1.88088" stroke-linecap="round" stroke-linejoin="round"/>
<path d="M371.988 156.965C378.124 146.837 387.532 136.839 397.732 141.252C412.499 147.638 400.359 184.357 395.456 187.758C393.71 188.128 390.803 187.51 387.45 186.349" stroke="#3F4156" stroke-width="1.88088" stroke-linecap="round" stroke-linejoin="round"/>
<path fill-rule="evenodd" clip-rule="evenodd" d="M347.806 345.669L347.302 356.464L349.487 368.839L310.274 374.075L328.711 357.534L327.259 347.369" fill="white"/>
<path d="M326.637 355.547L325.185 345.382" stroke="#3F4156" stroke-width="1.88088" stroke-linecap="round" stroke-linejoin="round"/>
<path d="M345.736 343.677L345.23 354.474L347.409 366.849L308.2 372.089L318.293 363.034" stroke="#3F4156" stroke-width="1.88088" stroke-linecap="round" stroke-linejoin="round"/>
<path fill-rule="evenodd" clip-rule="evenodd" d="M280.334 304.005L273.137 307.263L263.503 317.697L239.972 285.669L263.239 294.025L271.185 288.415" fill="white"/>
<path d="M250.376 301.152L236.949 282.875L260.217 291.23L268.163 285.622" stroke="#3F4156" stroke-width="1.88088" stroke-linecap="round" stroke-linejoin="round"/>
<path d="M277.311 301.21L270.114 304.468L260.48 314.902L255.667 308.351" stroke="#3F4156" stroke-width="1.88088" stroke-linecap="round" stroke-linejoin="round"/>
<path d="M265.32 280.785L280.522 306.223" stroke="#3F4156" stroke-width="1.88088" stroke-linecap="round" stroke-linejoin="round"/>
<path fill-rule="evenodd" clip-rule="evenodd" d="M220.489 142.566L281.913 151.889C282.075 151.913 282.232 151.969 282.372 152.054C282.513 152.139 282.636 152.25 282.734 152.382C282.831 152.515 282.902 152.665 282.941 152.824C282.981 152.984 282.988 153.15 282.964 153.312L279.865 173.731C279.815 174.059 279.637 174.354 279.37 174.551C279.103 174.748 278.768 174.831 278.44 174.781L217.017 165.46C216.689 165.41 216.394 165.232 216.197 164.964C216 164.697 215.917 164.362 215.966 164.034L219.066 143.617C219.091 143.454 219.147 143.298 219.231 143.157C219.316 143.017 219.428 142.894 219.56 142.796C219.692 142.699 219.842 142.628 220.001 142.589C220.161 142.549 220.326 142.541 220.489 142.566V142.566Z" fill="#5AA5B9" fill-opacity="0.5"/>
<path fill-rule="evenodd" clip-rule="evenodd" d="M289.431 163.952C287.899 163.607 284.443 163.61 282.685 163.262C279.448 162.618 276.606 160.914 274.506 160.74C272.405 160.565 271.564 161.856 271.467 162.544C271.071 165.312 279.102 167.903 281.771 168.227" fill="white"/>
<path d="M289.431 163.952C287.899 163.607 284.443 163.61 282.685 163.262C279.448 162.618 276.606 160.914 274.506 160.74C272.405 160.565 271.564 161.856 271.467 162.544C271.071 165.312 279.102 167.903 281.771 168.227" stroke="#3F4156" stroke-width="1.88088" stroke-linecap="round" stroke-linejoin="round"/>
<path fill-rule="evenodd" clip-rule="evenodd" d="M33.9821 209.82C33.9821 198.64 43.046 189.576 54.2273 189.576C65.4086 189.576 74.4725 198.64 74.4725 209.82C74.4725 221.001 65.4086 230.067 54.2273 230.067C43.046 230.067 33.9821 221.003 33.9821 209.82Z" fill="white"/>
<path d="M91.5402 200.246H263.407" stroke="#5AA5B9" stroke-opacity="0.5" stroke-width="2.96528" stroke-linecap="round" stroke-linejoin="round"/>
<path d="M91.5402 219.401H175.051" stroke="#5AA5B9" stroke-opacity="0.5" stroke-width="2.96528" stroke-linecap="round" stroke-linejoin="round"/>
<path fill-rule="evenodd" clip-rule="evenodd" d="M33.9821 272.787C33.9821 261.607 43.046 252.543 54.2273 252.543C65.4086 252.543 74.4725 261.607 74.4725 272.787C74.4725 283.967 65.4086 293.033 54.2273 293.033C43.046 293.033 33.9821 283.969 33.9821 272.787Z" fill="white"/>
<path d="M91.5402 263.211H263.407" stroke="#5AA5B9" stroke-opacity="0.5" stroke-width="2.96528" stroke-linecap="round" stroke-linejoin="round"/>
<path d="M91.5402 282.364H175.051" stroke="#5AA5B9" stroke-opacity="0.5" stroke-width="2.96528" stroke-linecap="round" stroke-linejoin="round"/>
<path fill-rule="evenodd" clip-rule="evenodd" d="M33.9821 335.752C33.9821 324.572 43.046 315.507 54.2273 315.507C65.4086 315.507 74.4725 324.572 74.4725 335.752C74.4725 346.933 65.4086 356.002 54.2273 356.002C43.046 356.002 33.9821 346.935 33.9821 335.752Z" fill="white"/>
<path d="M91.5402 326.178H263.407" stroke="#5AA5B9" stroke-opacity="0.5" stroke-width="2.96528" stroke-linecap="round" stroke-linejoin="round"/>
<path d="M91.5402 345.33H175.051" stroke="#5AA5B9" stroke-opacity="0.5" stroke-width="2.96528" stroke-linecap="round" stroke-linejoin="round"/>
<path fill-rule="evenodd" clip-rule="evenodd" d="M33.9821 398.72C33.9821 387.538 43.046 378.475 54.2273 378.475C65.4086 378.475 74.4725 387.538 74.4725 398.72C74.4725 409.902 65.4086 418.965 54.2273 418.965C43.046 418.965 33.9821 409.9 33.9821 398.72Z" fill="white"/>
<path d="M91.5402 389.143H263.407" stroke="#5AA5B9" stroke-opacity="0.5" stroke-width="2.96528" stroke-linecap="round" stroke-linejoin="round"/>
<path d="M91.5402 408.296H175.051" stroke="#5AA5B9" stroke-opacity="0.5" stroke-width="2.96528" stroke-linecap="round" stroke-linejoin="round"/>
<path fill-rule="evenodd" clip-rule="evenodd" d="M284.494 199.635C284.494 197.209 285.213 194.838 286.561 192.821C287.91 190.803 289.825 189.231 292.067 188.303C294.308 187.375 296.775 187.132 299.154 187.605C301.534 188.079 303.719 189.247 305.435 190.963C307.15 192.678 308.318 194.864 308.791 197.244C309.265 199.623 309.022 202.089 308.093 204.331C307.165 206.572 305.593 208.488 303.575 209.836C301.558 211.184 299.186 211.903 296.76 211.903C295.149 211.903 293.554 211.586 292.066 210.969C290.578 210.353 289.225 209.449 288.086 208.31C286.947 207.171 286.044 205.818 285.427 204.33C284.811 202.841 284.494 201.246 284.494 199.635V199.635Z" fill="white"/>
<path d="M284.924 190.899C286.471 188.69 288.703 187.053 291.274 186.24C293.845 185.427 296.612 185.484 299.148 186.402C301.683 187.32 303.845 189.048 305.3 191.318C306.754 193.589 307.42 196.276 307.194 198.963C306.968 201.65 305.863 204.187 304.05 206.183C302.236 208.179 299.816 209.521 297.163 210.003C294.51 210.485 291.772 210.079 289.372 208.848C286.973 207.617 285.047 205.629 283.891 203.193" stroke="#3F4156" stroke-width="1.88088" stroke-linecap="round" stroke-linejoin="round"/>
<path fill-rule="evenodd" clip-rule="evenodd" d="M372.8 129.852C374.166 132.326 375.952 137.454 376.502 141.534C378.417 141.954 386.669 140.149 388.537 138.468C387.796 134.974 385.269 122.485 385.553 120.478C385.837 118.471 371.738 127.934 372.8 129.852Z" fill="white"/>
<path d="M381.025 139.262C383.386 138.664 385.648 137.852 386.524 137.066C385.782 133.574 383.255 121.084 383.538 119.076C383.822 117.068 369.724 126.536 370.785 128.452C372.151 130.925 373.938 136.053 374.487 140.131" stroke="#3F4156" stroke-width="1.88088" stroke-linecap="round" stroke-linejoin="round"/>
<path fill-rule="evenodd" clip-rule="evenodd" d="M354.55 110.602C354.55 98.6077 361.769 88.8828 370.677 88.8828C379.584 88.8828 386.804 98.6077 386.804 110.602C386.804 122.597 379.584 132.322 370.677 132.322C361.769 132.322 354.55 122.598 354.55 110.602Z" fill="white"/>
<path d="M362.056 108.898C361.824 110.836 360.662 113.626 359.307 114.669" stroke="#3F4156" stroke-width="1.88088" stroke-linecap="round" stroke-linejoin="round"/>
<path fill-rule="evenodd" clip-rule="evenodd" d="M366.152 107.481C366.152 106.115 366.769 105.017 367.531 105.017C368.293 105.017 368.91 106.121 368.91 107.481C368.91 108.842 368.293 109.944 367.531 109.944C366.769 109.944 366.152 108.842 366.152 107.481Z" fill="#3F4156"/>
<path d="M367.051 120.381C367.051 119.386 367.823 118.579 368.774 118.579C369.725 118.579 370.497 119.386 370.497 120.381C370.497 121.376 369.726 122.181 368.774 122.181C367.822 122.181 367.051 121.374 367.051 120.381Z" stroke="#3F4156" stroke-width="1.88088" stroke-linecap="round" stroke-linejoin="round"/>
<path d="M353.334 112.74C353.167 111.471 353.084 110.193 353.085 108.914C353.085 96.9159 360.306 87.1931 369.212 87.1931C378.119 87.1931 385.341 96.9159 385.341 108.914C385.341 120.911 378.12 130.633 369.212 130.633C363.102 130.633 357.785 126.057 355.049 119.31" stroke="#3F4156" stroke-width="1.88088" stroke-linecap="round" stroke-linejoin="round"/>
<path fill-rule="evenodd" clip-rule="evenodd" d="M386.127 114.254C387.209 112.632 391.042 89.9997 382.969 86.5395C381.358 85.8471 381.028 87.6817 380.132 89.5983C378.821 83.7634 371.035 76.532 368.371 76.7989C365.708 77.0658 363.252 83.3263 363.295 85.1178C361.6 82.6391 356.595 78.9435 354.685 79.1778C349.593 79.802 352.507 91.4571 353.352 93.5545C351.278 93.3233 347.387 95.2778 347.152 98.2556C346.769 103.059 351.403 106.461 353.656 106.737C355.91 107.014 360.085 101.582 363.901 100.473C366.246 102.213 366.764 102.794 367.851 102.643C368.939 102.491 372.392 100.786 373.407 101.371C374.422 101.956 376.852 109.999 378.154 110.408C379.456 110.817 385.045 115.877 386.127 114.254Z" fill="#696D97"/>
<path d="M351.84 91.7409C349.766 91.5077 345.875 93.4631 345.64 96.4421C345.258 101.244 349.892 104.647 352.146 104.923C353.77 105.123 356.393 102.355 359.161 100.379" stroke="#3F4156" stroke-width="1.88088" stroke-linecap="round" stroke-linejoin="round"/>
<path d="M384.027 86.9473C383.349 85.9427 382.503 85.1725 381.457 84.7249C379.846 84.0324 379.516 85.8671 378.62 87.7837C377.309 81.9487 369.523 74.7184 366.859 74.9821C364.196 75.2459 361.74 81.5085 361.78 83.3021C360.085 80.8255 355.08 77.1288 353.169 77.3621C350.193 77.7278 349.953 81.8615 350.437 85.6527" stroke="#3F4156" stroke-width="1.88088" stroke-linecap="round" stroke-linejoin="round"/>
<path d="M362.386 98.6581C364.731 100.398 365.249 100.978 366.335 100.829C367.422 100.68 370.877 98.9713 371.892 99.5565C372.907 100.142 375.336 108.185 376.639 108.593C377.942 109.001 383.533 114.057 384.615 112.44C385.246 111.494 386.811 103.414 386.409 96.1531" stroke="#3F4156" stroke-width="1.88088" stroke-linecap="round" stroke-linejoin="round"/>
<path fill-rule="evenodd" clip-rule="evenodd" d="M377.065 114.348C377.065 113.409 377.343 112.491 377.865 111.71C378.387 110.93 379.129 110.321 379.997 109.962C380.864 109.603 381.819 109.509 382.74 109.692C383.661 109.876 384.507 110.328 385.171 110.992C385.835 111.656 386.287 112.502 386.47 113.423C386.653 114.344 386.559 115.299 386.2 116.167C385.84 117.034 385.232 117.776 384.451 118.298C383.67 118.819 382.752 119.098 381.813 119.098C381.189 119.098 380.572 118.975 379.996 118.736C379.419 118.498 378.896 118.148 378.455 117.707C378.014 117.266 377.664 116.742 377.426 116.166C377.187 115.59 377.064 114.972 377.065 114.348Z" fill="white"/>
<path d="M377.064 110.301C377.701 109.745 378.475 109.37 379.305 109.214C380.136 109.058 380.993 109.126 381.789 109.412C382.584 109.698 383.289 110.191 383.83 110.84C384.371 111.489 384.729 112.271 384.867 113.105C385.004 113.939 384.917 114.795 384.614 115.584C384.31 116.372 383.802 117.066 383.141 117.593C382.48 118.119 381.69 118.46 380.853 118.579C380.017 118.699 379.163 118.593 378.381 118.272" stroke="#3F4156" stroke-width="1.88088" stroke-linecap="round" stroke-linejoin="round"/>
<path fill-rule="evenodd" clip-rule="evenodd" d="M1.25147 0H483.749C484.44 0 485 0.0378278 485 0.0840618V32.2377C485 32.2839 484.44 32.3218 483.749 32.3218H1.25147C0.560062 32.3218 0 32.2839 0 32.2377V0.0840618C0 0.0378278 0.560062 0 1.25147 0Z" fill="#5AA5B9" fill-opacity="0.5"/>
<path fill-rule="evenodd" clip-rule="evenodd" d="M15.7417 16.1588C15.7417 11.4303 19.5161 7.59814 24.171 7.59814C28.8259 7.59814 32.6003 11.4303 32.6003 16.1588C32.6003 20.8873 28.827 24.7205 24.1678 24.7205C19.5087 24.7205 15.7417 20.8873 15.7417 16.1588Z" fill="#5AA5B9"/>
<path fill-rule="evenodd" clip-rule="evenodd" d="M48.472 16.1588C48.472 11.4303 52.2454 7.59814 56.9013 7.59814C61.5573 7.59814 65.3306 11.4303 65.3306 16.1588C65.3306 20.8873 61.5573 24.7205 56.9013 24.7205C52.2454 24.7205 48.472 20.8873 48.472 16.1588Z" fill="#5AA5B9"/>
<path fill-rule="evenodd" clip-rule="evenodd" d="M81.2028 16.1588C81.2028 11.4303 84.9761 7.59814 89.6321 7.59814C94.288 7.59814 98.0614 11.4303 98.0614 16.1588C98.0614 20.8873 94.288 24.7205 89.631 24.7205C84.974 24.7205 81.2028 20.8873 81.2028 16.1588Z" fill="#5AA5B9"/>
<path d="M33.139 413.498C32.9619 417.415 30.0733 445.449 26.5443 456.036C38.3643 454.476 102.778 441.73 122.154 430.53C120.614 420.052 38.8003 412.408 33.139 413.498Z" fill="#3F4156"/>
<path d="M71.5352 203.81C71.5352 207.273 70.5083 210.658 68.5844 213.537C66.6606 216.417 63.9261 218.661 60.7268 219.986C57.5275 221.311 54.0071 221.658 50.6108 220.982C47.2145 220.307 44.0947 218.639 41.6461 216.191C39.1975 213.742 37.5299 210.622 36.8544 207.226C36.1788 203.829 36.5255 200.309 37.8507 197.11C39.1759 193.911 41.42 191.176 44.2993 189.252C47.1786 187.328 50.5637 186.301 54.0266 186.301C56.3261 186.301 58.6032 186.753 60.7279 187.632C62.8525 188.512 64.783 189.802 66.409 191.428C68.035 193.054 69.3247 194.984 70.2042 197.109C71.0838 199.233 71.5361 201.511 71.5352 203.81" fill="#696D97"/>
<path d="M126.276 234.168C127.522 233.582 129.334 229.637 129.334 223.792C129.334 209.26 118.298 202.448 100.646 202.448C88.3221 202.448 73.7974 207.053 64.539 224.344C57.6241 237.192 54.8104 265.56 49.0401 275.766C45.3885 282.217 37.6425 295.284 31.695 307.574C29.4604 310.695 18.2263 334.498 35.3807 342.319C52.535 350.14 132.196 346.924 134.315 343.566C136.433 340.207 124.525 316.22 120.607 311.362C116.69 306.505 111.07 300.326 114.272 276.434C117.474 252.541 114.578 238.46 117.324 237.322C120.069 236.184 123.401 236.116 126.276 234.168" fill="#696D97"/>
<path d="M81.9997 250.886C81.9997 252.356 81.5638 253.793 80.7471 255.015C79.9304 256.237 78.7695 257.19 77.4114 257.752C76.0533 258.315 74.5588 258.462 73.117 258.175C71.6752 257.889 70.3508 257.181 69.3114 256.141C68.2719 255.102 67.564 253.777 67.2772 252.336C66.9904 250.894 67.1376 249.399 67.7002 248.041C68.2627 246.683 69.2154 245.522 70.4377 244.705C71.66 243.889 73.097 243.453 74.567 243.453C76.5378 243.455 78.4272 244.238 79.8207 245.632C81.2142 247.025 81.9979 248.915 81.9997 250.886" fill="white"/>
<path d="M30.3189 410.684C30.1418 414.602 27.2532 442.636 23.7242 453.223" stroke="#3F4156" stroke-width="2.51388" stroke-linecap="round" stroke-linejoin="round"/>
<path d="M194.995 294.855C200.752 285.74 199.083 275.228 196.61 278.464C195.786 279.547 185.028 301.341 182.882 303.555C181.213 303.609 179.885 303.827 179.326 304.284C177.146 306.055 177.964 318.468 177.146 319.558C176.329 320.648 145.229 368.391 143.859 369.89C143.723 370.435 139.772 352.027 138.566 348.771C135.459 351.278 127.727 355.713 125.397 356.469C125.663 358.574 126.971 384.599 125.397 393.053C126.719 395.669 134.703 403.599 138.096 403.599C144.629 403.599 151.578 401.085 153.404 399.825C161.027 394.593 190.445 327.031 192.597 325.628C196.896 322.807 204.056 313.079 205.058 306.92C205.058 304.195 207.292 302.417 194.975 294.834" fill="white"/>
<path d="M108.154 304.175C127.345 297.907 144.806 341.481 143.443 344.996C142.081 348.511 122.706 359.017 118.482 358.458C114.258 357.899 100.701 306.593 108.154 304.161" fill="#5AA5B9"/>
<path d="M105.353 301.361C124.545 295.093 142.006 338.674 140.643 342.183C139.281 345.691 119.905 356.203 115.681 355.658C111.458 355.113 97.8594 303.793 105.353 301.361Z" stroke="#3F4156" stroke-width="2.51388" stroke-linecap="round" stroke-linejoin="round"/>
<path d="M85.0514 293.281C139.369 294.555 125.648 415.869 123.155 420.202C119.796 426.033 50.259 431.327 33.677 415.058C29.8414 411.297 33.4862 292.075 85.0514 293.281" fill="#5AA5B9"/>
<path d="M75.9431 290.944C78.0201 290.575 80.1292 290.418 82.238 290.474C98.9291 290.863 109.196 302.587 115.341 318.774" stroke="#3F4156" stroke-width="2.51388" stroke-linecap="round" stroke-linejoin="round"/>
<path d="M123.339 362.668C124.811 390.171 121.452 415.453 120.342 417.388C116.983 423.219 47.446 428.513 30.8639 412.244C27.3758 408.838 30.0736 309.822 69.4305 292.906" stroke="#3F4156" stroke-width="2.51388" stroke-linecap="round" stroke-linejoin="round"/>
<path d="M121.704 220.747C121.813 227.491 74.7988 233.875 74.5399 243.453C74.281 253.032 74.1243 258.564 74.1243 258.564C75.8071 267.495 72.1623 299.072 71.1335 302.369C75.0781 306.041 94.8621 305.776 97.0218 303.555C96.7424 301.334 96.7833 286.21 97.3488 284.479C98.1798 284.591 99.0173 284.648 99.8558 284.65C114.987 284.65 127.256 266.794 127.256 244.761C127.256 233.248 127.066 230.203 121.718 220.726" fill="white"/>
<path d="M57.0177 296.967C78.0484 303.5 65.4586 354.445 61.4391 356.455C57.4196 358.465 18.0286 347.21 17.2247 342.789C16.4208 338.368 30.2234 288.635 57.0177 296.967Z" fill="#5AA5B9"/>
<path d="M66.0309 320.409C65.8606 335.894 60.8874 352.51 58.6255 353.641C54.6061 355.651 15.2151 344.397 14.4112 339.975C14.1727 338.674 15.1946 333.469 17.4428 326.97" stroke="#3F4156" stroke-width="2.51388" stroke-linecap="round" stroke-linejoin="round"/>
<path d="M28.5204 305.237C34.9652 296.694 43.5628 290.842 54.2042 294.153C55.0657 294.417 55.8969 294.771 56.684 295.209" stroke="#3F4156" stroke-width="2.51388" stroke-linecap="round" stroke-linejoin="round"/>
<path d="M156 344.71C164.645 331.548 173.91 317.371 174.353 316.778C175.17 315.688 174.353 303.275 176.533 301.504C178.713 299.733 192.611 301.504 192.611 303.085C192.611 304.665 186.936 309.897 185.546 310.286" stroke="#3F4156" stroke-width="2.51388" stroke-linecap="round" stroke-linejoin="round"/>
<path d="M135.922 346.42C137.128 349.684 140.929 367.662 141.066 367.117C141.413 366.729 143.695 363.343 146.918 358.492" stroke="#3F4156" stroke-width="2.51388" stroke-linecap="round" stroke-linejoin="round"/>
<path d="M192.14 320.907C191.422 321.619 190.64 322.265 189.804 322.835C187.651 324.245 158.234 391.799 150.61 397.038C148.785 398.292 141.836 400.806 135.302 400.806C131.896 400.806 124.654 393.993 123.339 391.398" stroke="#3F4156" stroke-width="2.51388" stroke-linecap="round" stroke-linejoin="round"/>
<path d="M118.298 267.202C113.27 276.147 105.633 281.856 97.0761 281.856C91.6259 281.856 86.5232 279.526 82.2449 275.514" stroke="#3F4156" stroke-width="2.51388" stroke-linecap="round" stroke-linejoin="round"/>
<path d="M118.904 217.933C122.629 225.389 124.523 233.626 124.429 241.961C124.441 246.166 123.984 250.359 123.067 254.462" stroke="#3F4156" stroke-width="2.51388" stroke-linecap="round" stroke-linejoin="round"/>
<path d="M75.9431 254.163C74.8821 254.894 73.6491 255.336 72.3654 255.445C71.0817 255.555 69.7916 255.328 68.6221 254.788C67.4526 254.247 66.444 253.411 65.6956 252.363C64.9472 251.314 64.4848 250.088 64.3539 248.807C64.2231 247.525 64.4282 246.231 64.9492 245.053C65.4702 243.875 66.2891 242.852 67.3252 242.087C68.3613 241.321 69.579 240.838 70.8584 240.686C72.1377 240.534 73.4346 240.717 74.6215 241.219" stroke="#3F4156" stroke-width="2.51388" stroke-linecap="round" stroke-linejoin="round"/>
<path d="M98.5887 239.693C98.5887 241.266 97.9074 242.547 97.0354 242.547C96.1633 242.547 95.4889 241.266 95.4889 239.693C95.4889 238.119 96.1702 236.831 97.0354 236.831C97.9006 236.831 98.5887 238.112 98.5887 239.693Z" fill="#3F4156"/>
<path d="M112.739 253.039C112.999 253.552 113.319 254.032 113.693 254.469" stroke="#3F4156" stroke-width="2.51388" stroke-linecap="round" stroke-linejoin="round"/>
<path d="M111.219 244.25C111.073 246.342 111.264 248.445 111.785 250.477" stroke="#3F4156" stroke-width="2.51388" stroke-linecap="round" stroke-linejoin="round"/>
<path d="M89.8751 258.68C90.1749 260.683 92.3822 263.285 95.482 264.287" stroke="#3F4156" stroke-width="2.51388" stroke-linecap="round" stroke-linejoin="round"/>
<path d="M94.2079 300.741C93.9286 298.52 93.9694 283.396 94.5349 281.665" stroke="#3F4156" stroke-width="2.51388" stroke-linecap="round" stroke-linejoin="round"/>
<path d="M70.2273 286.155C69.546 292.866 68.7285 298.289 68.3334 299.556C69.9003 301.014 73.9538 301.845 78.4162 302.186" stroke="#3F4156" stroke-width="2.51388" stroke-linecap="round" stroke-linejoin="round"/>
<path d="M71.3246 255.757C72.0059 259.225 71.8287 266.105 71.3246 273.422" stroke="#3F4156" stroke-width="2.51388" stroke-linecap="round" stroke-linejoin="round"/>
<path d="M38.2556 212.769C36.2801 210.596 34.8831 207.962 34.193 205.108C33.503 202.253 33.5421 199.272 34.3069 196.437C35.0716 193.602 36.5374 191.004 38.5691 188.885C40.6009 186.765 43.1334 185.19 45.9335 184.306" stroke="#3F4156" stroke-width="2.51388" stroke-linecap="round" stroke-linejoin="round"/>
<path d="M67.346 194.191C68.6105 197.182 69.0187 200.467 68.5249 203.677C68.0311 206.887 66.6548 209.897 64.5497 212.37C62.4446 214.843 59.6935 216.683 56.6035 217.683C53.5135 218.683 50.2063 218.805 47.051 218.035" stroke="#3F4156" stroke-width="2.51388" stroke-linecap="round" stroke-linejoin="round"/>
<path d="M112.296 201.637C121.288 204.634 126.521 210.99 126.521 220.978C126.521 226.823 124.708 230.768 123.455 231.354" stroke="#3F4156" stroke-width="2.51388" stroke-linecap="round" stroke-linejoin="round"/>
<path d="M51.213 258.162C54.2923 245.742 57.0787 230.128 61.7114 221.496C70.3975 205.289 83.7027 200.234 95.4887 199.695" stroke="#3F4156" stroke-width="2.51388" stroke-linecap="round" stroke-linejoin="round"/>
<path d="M28.8809 304.76C32.9685 296.306 37.9145 287.476 41.825 280.698" stroke="#3F4156" stroke-width="2.51388" stroke-linecap="round" stroke-linejoin="round"/>
<path d="M111.015 295.209C111.308 297.9 111.751 300.155 112.378 301.382" stroke="#3F4156" stroke-width="2.51388" stroke-linecap="round" stroke-linejoin="round"/>
<path d="M111.165 276.154C110.668 277.877 110.422 283.43 110.599 288.982" stroke="#3F4156" stroke-width="2.51388" stroke-linecap="round" stroke-linejoin="round"/>
<path d="M120.737 213.491C120.737 227.614 71.7397 228.888 71.7397 240.64" stroke="#3F4156" stroke-width="2.51388" stroke-linecap="round" stroke-linejoin="round"/>
<path d="M145.337 420.031C150.059 420.821 152.75 413.048 155.625 413.464C157.723 413.763 167.758 415.051 168.201 415.746C168.644 416.441 167.002 423.676 167.002 423.676" fill="#E1F6FB"/>
<path d="M95.6129 411.651L88.1553 455.978L159.544 467.989L167.001 423.661L95.6129 411.651Z" fill="#E1F6FB"/>
<path d="M160.087 445.266L156.735 465.186L115.341 458.223" stroke="#3F4156" stroke-width="2.51388" stroke-linecap="round" stroke-linejoin="round"/>
<path d="M164.195 420.862L162.792 429.194" stroke="#3F4156" stroke-width="2.51388" stroke-linecap="round" stroke-linejoin="round"/>
<path d="M91.8512 454.272L85.3451 453.154L92.8391 408.824L153.629 419.043" stroke="#3F4156" stroke-width="2.51388" stroke-linecap="round" stroke-linejoin="round"/>
<path d="M142.524 417.217C147.245 418.008 149.943 410.234 152.811 410.65C154.909 410.95 164.944 412.237 165.387 412.932C165.83 413.627 164.188 420.862 164.188 420.862" stroke="#3F4156" stroke-width="2.51388" stroke-linecap="round" stroke-linejoin="round"/>
<path d="M145.701 425.049L142.517 443.975L152.89 445.72L156.074 426.795L145.701 425.049Z" fill="#5AA5B9"/>
<path d="M98.9564 420.862L139.717 427.716" stroke="#3F4156" stroke-width="2.51388" stroke-linecap="round" stroke-linejoin="round"/>
<path d="M132.107 435.339L138.17 436.361" stroke="#3F4156" stroke-width="2.51388" stroke-linecap="round" stroke-linejoin="round"/>
<path d="M97.4169 429.508L120.832 433.446" stroke="#3F4156" stroke-width="2.51388" stroke-linecap="round" stroke-linejoin="round"/>
<path d="M143.218 422.777C142.156 414.602 139.696 405.922 122.317 406.672C119.967 404.785 74.3216 391.84 46.7983 384.701C50.0003 378.086 53.7336 357.927 53.9244 356.087C51.8806 355.706 21.7208 346.427 21.7208 346.427C21.7208 346.427 9.11052 399.157 11.8492 403.565C28.7243 414.315 92.0278 422.061 120.607 420.052C122.61 421.625 122.337 422.613 125.178 423.015C128.019 423.417 143.218 422.777 143.218 422.777" fill="white"/>
<path d="M88.7582 394.122C105.027 398.782 118.264 402.85 119.497 403.858C136.89 403.108 139.342 411.754 140.405 419.963" stroke="#3F4156" stroke-width="2.51388" stroke-linecap="round" stroke-linejoin="round"/>
<path d="M51.1113 353.301C50.9137 355.113 47.1804 375.272 43.9852 381.914C53.5639 384.387 65.343 387.569 76.727 390.771" stroke="#3F4156" stroke-width="2.51388" stroke-linecap="round" stroke-linejoin="round"/>
<path d="M125.356 412.279C126.144 415.079 126.432 417.996 126.207 420.897" stroke="#3F4156" stroke-width="2.51388" stroke-linecap="round" stroke-linejoin="round"/>
<path d="M130.602 412.279C131.397 415.078 131.685 417.996 131.453 420.897" stroke="#3F4156" stroke-width="2.51388" stroke-linecap="round" stroke-linejoin="round"/>
<path d="M134.832 412.279C135.622 415.079 135.908 417.997 135.677 420.897" stroke="#3F4156" stroke-width="2.51388" stroke-linecap="round" stroke-linejoin="round"/>
<path d="M9.73766 387.289C8.54544 394.633 8.0413 400.124 9.05639 400.751C32.6487 415.739 103.95 418.083 117.814 417.238" stroke="#3F4156" stroke-width="2.51388" stroke-linecap="round" stroke-linejoin="round"/>
<path d="M18.9073 343.641C18.6484 344.554 16.2163 354.773 13.7705 366.334" stroke="#3F4156" stroke-width="2.51388" stroke-linecap="round" stroke-linejoin="round"/>
<path d="M252.263 210.575C248.82 210.575 247.909 217.405 241.78 217.405H205.636V253.736H263.44V210.575H252.263Z" fill="#5AA5B9"/>
</svg>
