<svg id="eac6d24b-192e-4193-ac41-2722015e5b2d" data-name="Layer 1" xmlns="http://www.w3.org/2000/svg" width="581.85193" height="521.10805" viewBox="0 0 581.85193 521.10805"><path d="M760.451,708.97281H745.69122a6.50753,6.50753,0,0,1-6.5-6.5V579.45816a6.50753,6.50753,0,0,1,6.5-6.5H760.451a6.50753,6.50753,0,0,1,6.5,6.5V702.47281A6.50753,6.50753,0,0,1,760.451,708.97281Z" transform="translate(-309.07403 -189.44598)" fill="#5aa5b9"/><path d="M781.70184,543.75083l-11.54657-9.19361a5.99993,5.99993,0,0,0-8.43115.95649l-76.62445,96.2351a6,6,0,0,0,.95648,8.43122l.31336.24951,37.27429,59.14361a6,6,0,0,0,8.27508,1.877l12.48664-7.86951a6.00011,6.00011,0,0,0,1.87695-8.27515l-30.75934-48.80621,67.13519-84.3172A6,6,0,0,0,781.70184,543.75083Z" transform="translate(-309.07403 -189.44598)" fill="#5aa5b9"/><path d="M770.27032,617.05777h-71a8.51013,8.51013,0,0,1-8.5-8.5v-17a8.51014,8.51014,0,0,1,8.5-8.5h71a8.51013,8.51013,0,0,1,8.5,8.5v17A8.51012,8.51012,0,0,1,770.27032,617.05777Z" transform="translate(-309.07403 -189.44598)" fill="#ccc"/><rect x="257.81932" y="518.86732" width="324.03261" height="2.24072" fill="#3f3d56"/><circle cx="436.18475" cy="186.18088" r="53.51916" fill="#5aa5b9"/><path d="M800.39825,593.42008H690.33575a6.50753,6.50753,0,0,1-6.5-6.5l22.00977-112.60645a36.47174,36.47174,0,0,1,36.45508-36.36914h7.14257a36.49615,36.49615,0,0,1,36.45508,36.45508l20.99121,112.42871A6.51478,6.51478,0,0,1,800.39825,593.42008Z" transform="translate(-309.07403 -189.44598)" fill="#2f2e41"/><path d="M703.54278,393.49625c-3.30664-.09277-7.42285-.208-10.58886-2.52344a8.13044,8.13044,0,0,1-3.2002-6.07178,5.47024,5.47024,0,0,1,1.86035-4.49316c1.65625-1.39941,4.07325-1.72705,6.67774-.96142l-2.69922-19.72608,1.98242-.27148,3.17188,23.19091-1.6543-.75976c-1.91895-.88037-4.55176-1.32813-6.1875.05517a3.51367,3.51367,0,0,0-1.15235,2.895,6.14727,6.14727,0,0,0,2.38086,4.52784c2.46387,1.80175,5.74512,2.03418,9.46582,2.13867Z" transform="translate(-309.07403 -189.44598)" fill="#2f2e41"/><rect x="399.94824" y="171.97605" width="10.77148" height="2" fill="#2f2e41"/><rect x="687.36967" y="442.77905" width="26.75958" height="135.01423" rx="6" transform="translate(448.25172 1185.84939) rotate(-129.80425)" fill="#5aa5b9"/><path d="M762.06487,478.84234,723.08535,515.884a6.52536,6.52536,0,0,1-9.00684-.016l-17.63439-16.87715a6.52536,6.52536,0,0,1,.76208-10.05463l46.228-32.45865a6.5372,6.5372,0,0,1,9.189.83192l10.27791,12.33412A6.537,6.537,0,0,1,762.06487,478.84234Z" transform="translate(-309.07403 -189.44598)" fill="#2f2e41"/><path d="M748.111,321.41993c-2.25365-10.30069.52843-21.18718,6.55729-29.72059,6.14257-8.69437,15.76087-14.50791,25.961-17.16191,19.77257-5.14469,40.76618,2.03851,55.41016,15.74677,15.80238,14.79264,22.85191,36.29955,21.8373,57.64974-1.02873,21.64729-10.34457,41.97132-24.32408,58.31547a130.37836,130.37836,0,0,1-23.31613,21.26621c-4.24407,3.03108-9.21,6.979-14.67089,7.06755-3.95753.06415-9.015-2.49986-7.97323-7.17363.35863-1.609,1.48847-3.35681,3.26757-3.567,1.8941-.22374,1.91667-3.22641,0-3-4.65347.54969-7.36434,5.58981-6.1038,9.96813,1.39355,4.8403,7.00738,7.14484,11.66808,6.7253,5.90847-.53187,10.985-4.31006,15.65153-7.66285a139.93067,139.93067,0,0,0,13.333-10.853C842.146,403.552,855.079,383.40653,859.3496,360.80734c4.302-22.76533.062-47.48152-14.7554-65.74237-13.44513-16.56965-35.06344-27.26841-56.61849-24.89889-11.32675,1.24514-22.37938,5.86392-30.62266,13.84153a42.60393,42.60393,0,0,0-13.02985,30.0129,37.83353,37.83353,0,0,0,.895,8.19693c.41245,1.88515,3.30523,1.08739,2.89284-.79751Z" transform="translate(-309.07403 -189.44598)" fill="#2f2e41"/><path d="M755.13447,323.0067a24.2877,24.2877,0,0,1,27.54714-26.69981c1.91051.2407,1.893-2.76151,0-3a27.232,27.232,0,0,0-30.54714,29.69981c.18289,1.90481,3.18472,1.92383,3,0Z" transform="translate(-309.07403 -189.44598)" fill="#2f2e41"/><path d="M743.21564,310.72135a4.50019,4.50019,0,0,0-1.415,8.77343h.001l14.24317,4.70313a4.5,4.5,0,0,0,2.82129-8.54639l-14.24414-4.70312A4.48208,4.48208,0,0,0,743.21564,310.72135Z" transform="translate(-309.07403 -189.44598)" fill="#2f2e41"/><path d="M465.07349,501.00211H464.85c-85.89439,0-155.77593-69.88153-155.77593-155.77837,0-85.89623,69.88154-155.77776,155.77776-155.77776s155.77838,69.88153,155.77838,155.77776a155.89417,155.89417,0,0,1-48.242,112.69589l31.34048,35.13193-1.60684.68158c-25.977,11.01522-52.29786-4.00031-63.056-11.52091A155.49255,155.49255,0,0,1,465.07349,501.00211Zm-.2217-309.05456c-84.51657,0-153.27619,68.75961-153.27619,153.27619s68.75962,153.2768,153.27619,153.2768A152.94684,152.94684,0,0,0,538.548,479.64592l.68769-.37865.63944.45561c9.76626,6.94894,34.82411,21.80446,59.6395,12.3625L568.89968,457.767l.89106-.83426A153.37,153.37,0,0,0,618.12859,345.225C618.12859,260.70716,549.369,191.94755,464.85179,191.94755Z" transform="translate(-309.07403 -189.44598)" fill="#3f3d56"/><path d="M513.096,319.73562c-31.96825-.33285-63.93244-.90439-95.89925-1.33867q-15.98548-.21715-31.97163-.38072c-9.1828-.09561-9.20627-14.37494,0-14.27909,31.96824.33285,63.93244.90439,95.89925,1.33866q15.98549.21717,31.97163.38072c9.1828.09561,9.20627,14.375,0,14.2791Z" transform="translate(-309.07403 -189.44598)" fill="#5aa5b9"/><path d="M548.118,353.0535l-129.20273-1.33866-36.74573-.38072c-9.18283-.09514-9.20626-14.37448,0-14.27909l129.20273,1.33866,36.74573.38072c9.18283.09514,9.20627,14.37448,0,14.27909Z" transform="translate(-309.07403 -189.44598)" fill="#5aa5b9"/><path d="M548.118,386.37139l-129.20273-1.33867-36.74573-.38072c-9.18283-.09514-9.20626-14.37448,0-14.27909l129.20273,1.33866,36.74573.38072c9.18283.09515,9.20627,14.37448,0,14.2791Z" transform="translate(-309.07403 -189.44598)" fill="#5aa5b9"/><circle cx="311" cy="321.55613" r="9" fill="#e6e6e6"/></svg>