<?xml version="1.0" standalone="no"?>
<!DOCTYPE svg PUBLIC "-//W3C//DTD SVG 20010904//EN"
 "http://www.w3.org/TR/2001/REC-SVG-20010904/DTD/svg10.dtd">
<svg version="1.0" xmlns="http://www.w3.org/2000/svg"
 width="512.000000pt" height="512.000000pt" viewBox="0 0 512.000000 512.000000"
 preserveAspectRatio="xMidYMid meet">
<metadata>
Created by potrace 1.11, written by Peter Selinger 2001-2013
</metadata>
<g transform="translate(0.000000,512.000000) scale(0.100000,-0.100000)"
fill="#000000" stroke="none">
<path d="M1880 5010 c-894 -138 -1471 -447 -1549 -828 -8 -37 -11 -461 -11
-1383 l0 -1330 25 -76 c45 -132 109 -226 236 -348 247 -237 638 -396 1184
-482 154 -24 186 -25 820 -33 1036 -13 1224 -37 1471 -186 60 -36 144 -84 189
-106 44 -22 99 -58 122 -79 94 -86 105 -44 72 260 -6 51 -7 97 -2 102 4 4 50
-15 101 -44 168 -94 160 -90 192 -77 43 18 54 56 47 167 -7 98 -82 735 -93
788 -4 17 -10 606 -13 1310 l-6 1280 -37 71 c-63 121 -152 232 -263 327 -54
47 -52 43 25 -38 90 -95 150 -175 194 -262 l26 -52 0 -1200 c0 -749 4 -1238
10 -1302 6 -57 28 -250 50 -429 44 -363 61 -546 53 -567 -4 -10 -15 -4 -41 22
-20 19 -64 49 -98 65 -35 16 -115 61 -179 99 -228 136 -403 158 -1345 171
-535 7 -608 10 -724 29 -549 90 -918 259 -1119 511 -33 41 -76 109 -96 150
l-36 75 0 1240 0 1240 34 69 c132 269 572 485 1223 601 428 77 1010 39 1406
-91 57 -19 107 -34 111 -34 12 0 -114 73 -211 121 -185 93 -376 157 -608 203
-240 48 -355 58 -705 62 -288 3 -346 1 -455 -16z"/>
<path d="M2392 3544 c-81 -21 -160 -64 -219 -118 l-53 -48 0 86 0 86 -240 0
-240 0 0 -760 0 -760 240 0 240 0 0 448 c0 261 4 462 10 482 18 65 63 123 121
155 49 27 62 30 149 30 106 0 149 -15 205 -70 43 -44 66 -96 76 -174 5 -36 8
-247 9 -468 l0 -403 235 0 235 0 0 448 c0 261 4 462 10 482 18 65 63 123 121
155 49 27 62 30 149 30 106 0 149 -15 205 -70 43 -44 66 -96 76 -174 5 -36 8
-247 9 -468 l0 -403 235 0 235 0 0 443 c0 243 -5 484 -10 535 -37 350 -258
552 -604 552 -188 0 -304 -48 -437 -180 l-86 -85 -34 49 c-63 91 -202 179
-327 205 -73 15 -246 13 -310 -5z"/>
</g>
</svg>
